PathFileType	4	(X/Y/Z)	C:/Users/beibeiliu/ov580/test_trc/User2\sequence.12_training_dense_left.trc
DataRate	CameraRate	NumFrames	NumMarkers	Units	OrigDataRate	OrigDataStartFrame	OrigNumFrames
120	120	8	19	mm	120	224	446
Frame#	Time	ThumbCMC			ThumbMCP			ThumbIP			ThumbTip			IndexMCP			IndexPIP			IndexTip			MiddleMCP			MiddlePIP			MiddleTip			RingMCP			RingPIP			RingTip			PinkyMCP			PinkyPIP			PinkyTip			BackHand1			BackHand2			BackHand3	
		X0	Y0	Z0	X1	Y1	Z1	X2	Y2	Z2	X3	Y3	Z3	X4	Y4	Z4	X5	Y5	Z5	X6	Y6	Z6	X7	Y7	Z7	X8	Y8	Z8	X9	Y9	Z9	X10	Y10	Z10	X11	Y11	Z11	X12	Y12	Z12	X13	Y13	Z13	X14	Y14	Z14	X15	Y15	Z15	X16	Y16	Z16	X17	Y17	Z17	X18	Y18	Z18	
223	1.85833	-200.966	7.42189	105.273	-181.533	26.0734	82.9748	-160.033	26.8401	54.3831	-138.861	19.8722	34.2123	-189.863	-31.1063	33.9659	-164.405	-21.2887	16.4008	-135.75	-3.10252	26.1751	-190.009	-65.4689	38.6185	-185.261	-69.609	6.05984	-172.383	-73.1092	-27.0785	-178.984	-79.3643	53.7603	-172.755	-93.3556	27.2122	-168.335	-100.542	2.95581	-160.327	-84.9721	75.0862	-156.599	-101.599	55.1279	-154.853	-120.487	37.7549	-186.485	-64.6961	103.979	-191.335	-63.3725	135.907	-208.372	-38.8864	109.69	
224	1.86667	-188.794	9.45082	107.873	-166.386	20.791	82.3928	-143.666	27.2892	55.787	-125.637	12.5542	37.3188	-186.385	-26.6652	35.213	-157.272	-21.1221	18.8592	-127.938	-7.92098	29.0139	-195.307	-60.4983	37.7309	-188.733	-67.8862	4.82951	-178.941	-68.7281	-25.8066	-185.447	-77.0821	57.7494	-184.948	-93.1251	28.859	-182.975	-98.2881	2.51899	-170.316	-88.5871	79.227	-171.177	-105.566	59.6041	-176.982	-121.07	38.0213	-189.455	-64.1694	108.176	-197.736	-58.0562	139.498	-210.454	-30.3063	109.235	
225	1.875	-178.319	14.1367	110.515	-153.128	24.4989	86.0723	-132.413	18.0061	62.7078	-116.106	0.418015	38.5778	-180.923	-24.0575	35.4978	-152.371	-19.5773	20.7773	-123.514	-21.1917	30.261	-199.487	-50.1665	42.3846	-193.296	-61.8122	8.42838	-183.122	-64.818	-21.7398	-195.068	-75.3883	54.8535	-197.494	-82.3695	28.1704	-194.667	-92.4723	3.29016	-181.44	-84.1416	77.9258	-186.827	-101.866	58.7661	-196.503	-117.568	39.866	-195.375	-59.0166	109.195	-198.413	-50.8446	141.976	-206.388	-22.3631	112.278	
226	1.88333	-166.672	14.1035	112.362	-141.003	14.5578	89.3997	-118.473	10.6307	59.1317	-110.029	-11.3782	40.8182	-178.68	-19.269	40.268	-149.976	-23.9467	22.5792	-120.134	-28.2187	30.5856	-201.037	-43.5148	41.3544	-196.703	-53.285	6.47996	-186.709	-59.544	-22.6182	-202.478	-64.3372	54.8152	-205.787	-77.0268	30.0405	-205.954	-82.6771	-0.485312	-192.918	-83.161	80.6856	-202.103	-98.378	60.7624	-212.933	-104.935	41.4261	-198.568	-56.6665	108.034	-202.164	-44.3047	140.016	-202.627	-17.0164	116.594	
227	1.89167	-156.89	9.0651	117.979	-132.206	8.70589	92.685	-113.019	-1.37401	64.6344	-107.373	-21.4086	44.3508	-176.113	-15.2445	43.1701	-150.875	-23.4445	23.5558	-118.556	-36.8306	32.983	-201.855	-33.4441	42.2987	-200.334	-42.1406	7.36442	-193.523	-51.6484	-21.5786	-210.571	-58.5425	55.8348	-215.812	-63.7925	28.9256	-217.044	-72.0525	-0.147251	-200.211	-73.5017	82.7623	-214.696	-86.4562	64.4513	-230.37	-95.3794	46.26	-204.12	-44.6175	107.688	-202.877	-40.1331	142.08	-198.98	-6.68001	115.298	
228	1.9	-148.057	6.41157	120.411	-124.123	1.59359	96.9076	-108.187	-10.2478	66.89	-103.937	-27.6004	41.1066	-173.029	-13.9784	42.4832	-151.865	-26.2661	24.8171	-121.283	-44.771	31.9553	-203.438	-24.5155	43.7803	-204.035	-32.3318	10.908	-200.932	-41.8185	-17.1691	-214.456	-47.9442	61.7396	-222.632	-48.5989	31.1663	-226.007	-53.4178	6.07765	-210.763	-67.1718	84.4486	-231.245	-74.0717	61.8619	-243.734	-75.508	41.6346	-206.148	-39.6462	111.661	-204.368	-31.8729	143.884	-191.302	-2.03898	120.965	
229	1.90833	-141.601	-1.22489	121.41	-118.245	-7.45013	97.2763	-107.181	-19.5212	65.6346	-110.773	-36.5087	37.7615	-170.255	-4.36963	46.0354	-153.395	-23.3101	24.6679	-133.115	-48.4398	29.8546	-202.353	-12.0496	49.8877	-206.977	-15.8289	12.3594	-209.369	-25.7834	-13.9888	-220.855	-32.39	61.4541	-230.72	-34.7458	35.052	-237.675	-36.6564	4.74769	-222.443	-54.5167	81.9054	-236.875	-57.419	66.4099	-257.61	-56.8478	47.8831	-204.963	-30.5785	114.001	-204.191	-28.8595	147.382	-187.449	-1.91985	121.192	
230	1.91667	-135.86	-7.91587	121.8	-119.413	-17.2409	91.2015	-110.385	-28.5663	60.6741	-118.888	-42.667	35.5393	-171.081	-1.52077	48.7902	-158.442	-23.9569	24.1277	-143.337	-54.196	28.3851	-206.754	-5.24944	52.8881	-209.317	-3.09658	18.2452	-213.067	-8.08972	-15.3334	-220.176	-17.9074	63.6883	-235.216	-19.1689	41.6415	-240.256	-14.5748	12.3153	-227.454	-44.4777	85.6252	-246.976	-40.4561	64.5373	-265.362	-36.2481	49.0312	-208.149	-23.1492	114.266	-199.307	-21.9272	145.405	-181.496	0.633188	125.263	
